<mxfile host="app.diagrams.net" modified="2024-03-10T08:58:27.576Z" agent="Mozilla/5.0 (Macintosh; Intel Mac OS X 10_15_7) AppleWebKit/537.36 (KHTML, like Gecko) Chrome/121.0.0.0 Safari/537.36" etag="l5e39y_zR2cadaAZ6kEc" version="24.0.2" type="device">
  <diagram name="Page-1" id="aTZm4w62u5_jvMUJTjEg">
    <mxGraphModel dx="2311" dy="690" grid="1" gridSize="10" guides="1" tooltips="1" connect="1" arrows="1" fold="1" page="1" pageScale="1" pageWidth="850" pageHeight="1100" math="0" shadow="0">
      <root>
        <mxCell id="0" />
        <mxCell id="1" parent="0" />
        <mxCell id="lrRySde2gOc0AILobjiJ-3" style="edgeStyle=none;curved=1;rounded=0;orthogonalLoop=1;jettySize=auto;html=1;exitX=0.5;exitY=1;exitDx=0;exitDy=0;entryX=0.5;entryY=0;entryDx=0;entryDy=0;fontSize=12;startSize=8;endSize=8;" parent="1" source="lrRySde2gOc0AILobjiJ-2" target="lrRySde2gOc0AILobjiJ-6" edge="1">
          <mxGeometry relative="1" as="geometry">
            <mxPoint x="220" y="330" as="targetPoint" />
          </mxGeometry>
        </mxCell>
        <mxCell id="lrRySde2gOc0AILobjiJ-4" value="1. Request queueing a task&amp;nbsp;" style="edgeLabel;html=1;align=center;verticalAlign=middle;resizable=0;points=[];fontSize=16;" parent="lrRySde2gOc0AILobjiJ-3" vertex="1" connectable="0">
          <mxGeometry x="-0.094" y="2" relative="1" as="geometry">
            <mxPoint y="1" as="offset" />
          </mxGeometry>
        </mxCell>
        <mxCell id="lrRySde2gOc0AILobjiJ-12" style="edgeStyle=none;curved=1;rounded=0;orthogonalLoop=1;jettySize=auto;html=1;exitX=0.5;exitY=0;exitDx=0;exitDy=0;entryX=0;entryY=0.5;entryDx=0;entryDy=0;fontSize=12;startSize=8;endSize=8;" parent="1" source="lrRySde2gOc0AILobjiJ-2" target="lrRySde2gOc0AILobjiJ-11" edge="1">
          <mxGeometry relative="1" as="geometry" />
        </mxCell>
        <mxCell id="lrRySde2gOc0AILobjiJ-13" value="3. Upload files&amp;nbsp;" style="edgeLabel;html=1;align=center;verticalAlign=middle;resizable=0;points=[];fontSize=16;" parent="lrRySde2gOc0AILobjiJ-12" vertex="1" connectable="0">
          <mxGeometry x="0.0948" y="-3" relative="1" as="geometry">
            <mxPoint x="20" y="-3" as="offset" />
          </mxGeometry>
        </mxCell>
        <mxCell id="lrRySde2gOc0AILobjiJ-14" style="edgeStyle=none;curved=1;rounded=0;orthogonalLoop=1;jettySize=auto;html=1;exitX=0;exitY=0.5;exitDx=0;exitDy=0;entryX=0;entryY=0.5;entryDx=0;entryDy=0;fontSize=12;startSize=8;endSize=8;" parent="1" source="lrRySde2gOc0AILobjiJ-2" target="lrRySde2gOc0AILobjiJ-6" edge="1">
          <mxGeometry relative="1" as="geometry">
            <Array as="points">
              <mxPoint x="-100" y="250" />
            </Array>
          </mxGeometry>
        </mxCell>
        <mxCell id="lrRySde2gOc0AILobjiJ-15" value="4. Notify the scheduler&lt;br&gt;the files uploaded&lt;br&gt;successfully" style="edgeLabel;html=1;align=center;verticalAlign=middle;resizable=0;points=[];fontSize=16;" parent="lrRySde2gOc0AILobjiJ-14" vertex="1" connectable="0">
          <mxGeometry x="-0.4591" y="26" relative="1" as="geometry">
            <mxPoint as="offset" />
          </mxGeometry>
        </mxCell>
        <mxCell id="lrRySde2gOc0AILobjiJ-2" value="User" style="rounded=0;whiteSpace=wrap;html=1;fontSize=16;" parent="1" vertex="1">
          <mxGeometry x="160" y="150" width="120" height="60" as="geometry" />
        </mxCell>
        <mxCell id="lrRySde2gOc0AILobjiJ-9" style="edgeStyle=none;curved=1;rounded=0;orthogonalLoop=1;jettySize=auto;html=1;exitX=1;exitY=0.5;exitDx=0;exitDy=0;entryX=1;entryY=0.5;entryDx=0;entryDy=0;fontSize=12;startSize=8;endSize=8;" parent="1" source="lrRySde2gOc0AILobjiJ-6" target="lrRySde2gOc0AILobjiJ-2" edge="1">
          <mxGeometry relative="1" as="geometry">
            <Array as="points">
              <mxPoint x="550" y="250" />
            </Array>
          </mxGeometry>
        </mxCell>
        <mxCell id="lrRySde2gOc0AILobjiJ-10" value="2. Return a task ID" style="edgeLabel;html=1;align=center;verticalAlign=middle;resizable=0;points=[];fontSize=16;" parent="lrRySde2gOc0AILobjiJ-9" vertex="1" connectable="0">
          <mxGeometry x="0.4246" y="25" relative="1" as="geometry">
            <mxPoint as="offset" />
          </mxGeometry>
        </mxCell>
        <mxCell id="lrRySde2gOc0AILobjiJ-19" style="edgeStyle=none;curved=1;rounded=0;orthogonalLoop=1;jettySize=auto;html=1;exitX=0.5;exitY=1;exitDx=0;exitDy=0;entryX=0.5;entryY=0;entryDx=0;entryDy=0;fontSize=12;startSize=8;endSize=8;" parent="1" source="lrRySde2gOc0AILobjiJ-6" target="lrRySde2gOc0AILobjiJ-16" edge="1">
          <mxGeometry relative="1" as="geometry" />
        </mxCell>
        <mxCell id="lrRySde2gOc0AILobjiJ-20" style="edgeStyle=none;curved=1;rounded=0;orthogonalLoop=1;jettySize=auto;html=1;exitX=0.5;exitY=1;exitDx=0;exitDy=0;entryX=0.5;entryY=0;entryDx=0;entryDy=0;fontSize=12;startSize=8;endSize=8;" parent="1" source="lrRySde2gOc0AILobjiJ-6" target="lrRySde2gOc0AILobjiJ-17" edge="1">
          <mxGeometry relative="1" as="geometry" />
        </mxCell>
        <mxCell id="lrRySde2gOc0AILobjiJ-22" value="5. Assign queued tasks to one of the workers based on the selected scheduling algorithm" style="edgeLabel;html=1;align=center;verticalAlign=middle;resizable=0;points=[];fontSize=16;" parent="lrRySde2gOc0AILobjiJ-20" vertex="1" connectable="0">
          <mxGeometry x="-0.5122" y="1" relative="1" as="geometry">
            <mxPoint y="1" as="offset" />
          </mxGeometry>
        </mxCell>
        <mxCell id="lrRySde2gOc0AILobjiJ-21" style="edgeStyle=none;curved=1;rounded=0;orthogonalLoop=1;jettySize=auto;html=1;exitX=0.5;exitY=1;exitDx=0;exitDy=0;entryX=0.5;entryY=0;entryDx=0;entryDy=0;fontSize=12;startSize=8;endSize=8;" parent="1" source="lrRySde2gOc0AILobjiJ-6" target="lrRySde2gOc0AILobjiJ-18" edge="1">
          <mxGeometry relative="1" as="geometry" />
        </mxCell>
        <mxCell id="lrRySde2gOc0AILobjiJ-6" value="Scheduler" style="rounded=0;whiteSpace=wrap;html=1;fontSize=16;" parent="1" vertex="1">
          <mxGeometry x="160" y="290" width="120" height="60" as="geometry" />
        </mxCell>
        <mxCell id="lrRySde2gOc0AILobjiJ-8" style="edgeStyle=none;curved=1;rounded=0;orthogonalLoop=1;jettySize=auto;html=1;entryX=0.5;entryY=0;entryDx=0;entryDy=0;fontSize=12;startSize=8;endSize=8;" parent="1" source="lrRySde2gOc0AILobjiJ-6" target="lrRySde2gOc0AILobjiJ-6" edge="1">
          <mxGeometry relative="1" as="geometry" />
        </mxCell>
        <mxCell id="lrRySde2gOc0AILobjiJ-11" value="File Server" style="rounded=0;whiteSpace=wrap;html=1;fontSize=16;" parent="1" vertex="1">
          <mxGeometry x="530" y="120" width="120" height="60" as="geometry" />
        </mxCell>
        <mxCell id="lrRySde2gOc0AILobjiJ-26" style="edgeStyle=none;curved=1;rounded=0;orthogonalLoop=1;jettySize=auto;html=1;exitX=1;exitY=0.5;exitDx=0;exitDy=0;entryX=0.25;entryY=1;entryDx=0;entryDy=0;fontSize=12;startSize=8;endSize=8;" parent="1" source="lrRySde2gOc0AILobjiJ-16" target="lrRySde2gOc0AILobjiJ-11" edge="1">
          <mxGeometry relative="1" as="geometry">
            <Array as="points">
              <mxPoint x="560" y="380" />
            </Array>
          </mxGeometry>
        </mxCell>
        <mxCell id="lrRySde2gOc0AILobjiJ-16" value="Worker 1" style="rounded=0;whiteSpace=wrap;html=1;fontSize=16;" parent="1" vertex="1">
          <mxGeometry x="10" y="440" width="120" height="60" as="geometry" />
        </mxCell>
        <mxCell id="lrRySde2gOc0AILobjiJ-25" style="edgeStyle=none;curved=1;rounded=0;orthogonalLoop=1;jettySize=auto;html=1;exitX=1;exitY=0.5;exitDx=0;exitDy=0;entryX=0.5;entryY=1;entryDx=0;entryDy=0;fontSize=12;startSize=8;endSize=8;" parent="1" source="lrRySde2gOc0AILobjiJ-17" target="lrRySde2gOc0AILobjiJ-11" edge="1">
          <mxGeometry relative="1" as="geometry">
            <Array as="points">
              <mxPoint x="620" y="400" />
            </Array>
          </mxGeometry>
        </mxCell>
        <mxCell id="lrRySde2gOc0AILobjiJ-27" value="6. Once a task is completed, the worker uploads&lt;br&gt;the training/inference results to the file server and notifies the scheduler" style="edgeLabel;html=1;align=center;verticalAlign=middle;resizable=0;points=[];fontSize=16;" parent="lrRySde2gOc0AILobjiJ-25" vertex="1" connectable="0">
          <mxGeometry x="0.6048" y="25" relative="1" as="geometry">
            <mxPoint x="20" y="26" as="offset" />
          </mxGeometry>
        </mxCell>
        <mxCell id="lrRySde2gOc0AILobjiJ-17" value="Worker 2" style="rounded=0;whiteSpace=wrap;html=1;fontSize=16;" parent="1" vertex="1">
          <mxGeometry x="160" y="440" width="120" height="60" as="geometry" />
        </mxCell>
        <mxCell id="lrRySde2gOc0AILobjiJ-23" style="edgeStyle=none;curved=1;rounded=0;orthogonalLoop=1;jettySize=auto;html=1;exitX=1;exitY=0.5;exitDx=0;exitDy=0;fontSize=12;startSize=8;endSize=8;entryX=0.75;entryY=1;entryDx=0;entryDy=0;" parent="1" source="lrRySde2gOc0AILobjiJ-18" target="lrRySde2gOc0AILobjiJ-11" edge="1">
          <mxGeometry relative="1" as="geometry">
            <mxPoint x="540" y="469.57142857142867" as="targetPoint" />
            <Array as="points">
              <mxPoint x="730" y="310" />
            </Array>
          </mxGeometry>
        </mxCell>
        <mxCell id="lrRySde2gOc0AILobjiJ-18" value="Worker 3" style="rounded=0;whiteSpace=wrap;html=1;fontSize=16;" parent="1" vertex="1">
          <mxGeometry x="310" y="440" width="120" height="60" as="geometry" />
        </mxCell>
        <mxCell id="lrRySde2gOc0AILobjiJ-28" style="edgeStyle=none;curved=1;rounded=0;orthogonalLoop=1;jettySize=auto;html=1;exitX=0.5;exitY=0;exitDx=0;exitDy=0;fontSize=12;startSize=8;endSize=8;entryX=0.5;entryY=0;entryDx=0;entryDy=0;" parent="1" source="lrRySde2gOc0AILobjiJ-11" target="lrRySde2gOc0AILobjiJ-2" edge="1">
          <mxGeometry relative="1" as="geometry">
            <mxPoint x="220" y="150" as="targetPoint" />
            <Array as="points">
              <mxPoint x="400" y="-10" />
            </Array>
          </mxGeometry>
        </mxCell>
        <mxCell id="lrRySde2gOc0AILobjiJ-29" value="7. User retrieves the results from the file server" style="edgeLabel;html=1;align=center;verticalAlign=middle;resizable=0;points=[];fontSize=16;" parent="lrRySde2gOc0AILobjiJ-28" vertex="1" connectable="0">
          <mxGeometry x="-0.2362" y="-48" relative="1" as="geometry">
            <mxPoint x="-44" y="81" as="offset" />
          </mxGeometry>
        </mxCell>
      </root>
    </mxGraphModel>
  </diagram>
</mxfile>
